<?xml version="1.0" encoding="UTF-8" standalone="no"?>
<!-- Created with Inkscape (http://www.inkscape.org/) -->

<svg
   width="20.000034mm"
   height="19.999954mm"
   viewBox="0 0 20.000034 19.999954"
   version="1.1"
   id="svg5"
   inkscape:export-filename="ビットマップ.svg"
   inkscape:export-xdpi="96"
   inkscape:export-ydpi="96"
   sodipodi:docname="button200.svg"
   inkscape:version="1.2.2 (732a01da63, 2022-12-09)"
   xmlns:inkscape="http://www.inkscape.org/namespaces/inkscape"
   xmlns:sodipodi="http://sodipodi.sourceforge.net/DTD/sodipodi-0.dtd"
   xmlns="http://www.w3.org/2000/svg"
   xmlns:svg="http://www.w3.org/2000/svg">
  <sodipodi:namedview
     id="namedview7"
     pagecolor="#ffffff"
     bordercolor="#000000"
     borderopacity="0.25"
     inkscape:showpageshadow="2"
     inkscape:pageopacity="0.0"
     inkscape:pagecheckerboard="0"
     inkscape:deskcolor="#d1d1d1"
     inkscape:document-units="mm"
     showgrid="false"
     inkscape:zoom="11.602006"
     inkscape:cx="35.812772"
     inkscape:cy="37.924476"
     inkscape:window-width="1920"
     inkscape:window-height="1057"
     inkscape:window-x="-8"
     inkscape:window-y="-8"
     inkscape:window-maximized="1"
     inkscape:current-layer="g746" />
  <defs
     id="defs2">
    <clipPath
       id="clip0-9">
      <rect
         x="623"
         y="281"
         width="85"
         height="83"
         id="rect731" />
    </clipPath>
  </defs>
  <g
     inkscape:label="Layer 1"
     inkscape:groupmode="layer"
     id="layer1"
     transform="translate(-29.36205,-32.465339)">
    <g
       clip-path="url(#clip0-9)"
       transform="matrix(0.26666709,0,0,0.27777712,-138.37155,-45.590033)"
       id="g746">
      <rect
         style="fill:#000000;fill-opacity:0;stroke:#000000;stroke-width:0.202005;stroke-opacity:0"
         id="rect2757"
         width="74.793709"
         height="71.802254"
         x="629.10101"
         y="281.10101"
         transform="translate(3.7499942e-6)" />
      <path
         d="m 632.275,288.23345 c 0,-2.24868 1.82225,-4.07094 4.07092,-4.07094 h 60.30806 c 2.24867,0 4.07092,1.82226 4.07092,4.07094 v 57.53328 c 0,2.24869 -1.82225,4.07094 -4.07092,4.07094 h -60.30806 c -2.24867,0 -4.07092,-1.82225 -4.07092,-4.07094 z"
         stroke="#14233c"
         stroke-miterlimit="8"
         fill="#5480c8"
         fill-rule="evenodd"
         id="path736"
         style="stroke-width:0.925" />
      <path
         d="m 632.28713,324.71759 h 68.37079 l -9.60609,-16.64172 -11.86604,12.10273 -16.38589,-18.58607 -15.25685,18.1541 -6.21527,-10.15746 z"
         fill="#143b66"
         fill-rule="evenodd"
         id="path738"
         style="stroke-width:0.924466" />
      <path
         d="m 632.68265,345.96099 c 0.0209,-7.18727 0.042,-14.37361 0.0631,-21.56088 h 67.5958 c -0.005,7.18727 -0.0101,14.37361 -0.0146,21.56088 0,1.88516 -1.49031,3.41418 -3.32717,3.41418 h -60.98987 c -1.83776,0 -3.32718,-1.52902 -3.32718,-3.41418 z"
         fill="#143b66"
         fill-rule="evenodd"
         id="path740"
         style="stroke-width:0.919639" />
      <text
         fill="#fcfdfe"
         font-family="'BIZ UDPGothic', 'BIZ UDPGothic_MSFontService', sans-serif"
         font-weight="700"
         font-size="22.2001px"
         id="text742"
         x="640.49677"
         y="343.82446"
         style="stroke-width:0.925">２</text>
      <text
         fill="#fcfdfe"
         font-family="'BIZ UDPGothic', 'BIZ UDPGothic_MSFontService', sans-serif"
         font-weight="700"
         font-size="22.2001px"
         id="text744"
         x="657.30121"
         y="343.82446"
         style="stroke-width:0.925">００</text>
    </g>
  </g>
</svg>
