<?xml version="1.0" encoding="UTF-8" standalone="no"?>
<!-- Created with Inkscape (http://www.inkscape.org/) -->

<svg
   width="19.996679mm"
   height="20.00676mm"
   viewBox="0 0 19.996679 20.00676"
   version="1.1"
   id="svg5"
   inkscape:export-filename="ビットマップ.svg"
   inkscape:export-xdpi="96"
   inkscape:export-ydpi="96"
   sodipodi:docname="button500.svg"
   inkscape:version="1.2.2 (732a01da63, 2022-12-09)"
   xmlns:inkscape="http://www.inkscape.org/namespaces/inkscape"
   xmlns:sodipodi="http://sodipodi.sourceforge.net/DTD/sodipodi-0.dtd"
   xmlns="http://www.w3.org/2000/svg"
   xmlns:svg="http://www.w3.org/2000/svg">
  <sodipodi:namedview
     id="namedview7"
     pagecolor="#ffffff"
     bordercolor="#000000"
     borderopacity="0.25"
     inkscape:showpageshadow="2"
     inkscape:pageopacity="0.0"
     inkscape:pagecheckerboard="0"
     inkscape:deskcolor="#d1d1d1"
     inkscape:document-units="mm"
     showgrid="false"
     inkscape:zoom="11.598059"
     inkscape:cx="35.911181"
     inkscape:cy="19.658462"
     inkscape:window-width="1920"
     inkscape:window-height="1057"
     inkscape:window-x="-8"
     inkscape:window-y="-8"
     inkscape:window-maximized="1"
     inkscape:current-layer="g1015" />
  <defs
     id="defs2">
    <clipPath
       id="clip0-2">
      <rect
         x="697"
         y="281"
         width="85"
         height="83"
         id="rect1002" />
    </clipPath>
  </defs>
  <g
     inkscape:label="Layer 1"
     inkscape:groupmode="layer"
     id="layer1"
     transform="translate(-27.674113,-32.258773)">
    <g
       clip-path="url(#clip0-2)"
       transform="matrix(0.26662235,0,0,0.27787166,-159.7614,-45.823165)"
       id="g1015">
      <rect
         style="fill:#000000;fill-opacity:0;stroke:#000000;stroke-width:0.201987;stroke-opacity:0"
         id="rect2757"
         width="74.806259"
         height="71.777824"
         x="703.10101"
         y="281.10101"
         transform="translate(-3.0473811e-6)" />
      <path
         d="m 706.27543,288.23109 c 0,-2.24791 1.82255,-4.06954 4.07161,-4.06954 h 60.3184 c 2.24905,0 4.07161,1.82163 4.07161,4.06954 v 57.51351 c 0,2.2479 -1.82256,4.06953 -4.07161,4.06953 h -60.3184 c -2.24906,0 -4.07161,-1.82163 -4.07161,-4.06953 z"
         stroke="#14233c"
         stroke-miterlimit="8"
         fill="#5480c8"
         fill-rule="evenodd"
         id="path1007"
         style="stroke-width:0.924921" />
      <path
         d="m 706.2878,324.47493 h 68.22414 l -9.58549,-28.51436 -11.84058,20.73739 -16.35074,-31.84633 -15.22413,31.10609 -6.20193,-17.40453 z"
         fill="#143b66"
         fill-rule="evenodd"
         id="path1009"
         style="stroke-width:0.911176" />
      <path
         d="m 706.52527,345.93878 c 0.0211,-7.1848 0.0421,-14.36867 0.0632,-21.55346 h 67.68601 c -0.005,7.18479 -0.01,14.36866 -0.0146,21.55346 0,1.8845 -1.49231,3.41301 -3.33163,3.41301 h -61.07132 c -1.84019,0 -3.3316,-1.52851 -3.3316,-3.41301 z"
         fill="#143b66"
         fill-rule="evenodd"
         id="path1011"
         style="stroke-width:0.920096" />
      <text
         fill="#fcfdfe"
         font-family="'BIZ UDPGothic', 'BIZ UDPGothic_MSFontService', sans-serif"
         font-weight="700"
         font-size="22.1981px"
         transform="scale(1.0002556,0.9997445)"
         id="text1013"
         x="714.37946"
         y="343.8916"
         style="stroke-width:0.924921">500</text>
    </g>
  </g>
</svg>
